<?xml version="1.0" encoding="UTF-8"?>
<svg width="28px" height="28px" viewBox="0 0 28 28" version="1.1" xmlns="http://www.w3.org/2000/svg" xmlns:xlink="http://www.w3.org/1999/xlink">
    <!-- Generator: Sketch 50 (54983) - http://www.bohemiancoding.com/sketch -->
    <title>my2</title>
    <desc>Created with Sketch.</desc>
    <defs>
        <rect id="path-1" x="0" y="0" width="28" height="28"></rect>
    </defs>
    <g id="首页" stroke="none" stroke-width="1" fill="none" fill-rule="evenodd">
        <g id="Artboard-2" transform="translate(-28.000000, -144.000000)">
            <g id="Rectangle-3" transform="translate(28.000000, 144.000000)">
                <mask id="mask-2" fill="white">
                    <use xlink:href="#path-1"></use>
                </mask>
                <g id="Mask"></g>
                <path d="M3.78481242,8.84999996 L10.2363636,8.84999996 L11.5272727,5.30000007 L6.62481234,5.30000007 L3.78481242,8.84999996 Z M3.30000007,10.15 L3.30000007,22.6999999 L24.6999999,22.6999999 L24.6999999,10.15 L18,10.15 L18,14 L10,14 L10,10.15 L3.30000007,10.15 Z M24.2151876,8.84999996 L21.3751877,5.30000007 L16.4727273,5.30000007 L17.7636364,8.84999996 L24.2151876,8.84999996 Z M16.6995727,8.84999996 L15.2995727,5 L12.7004273,5 L11.3004273,8.84999996 L16.6995727,8.84999996 Z M17,10.15 L11,10.15 L11,13 L17,13 L17,10.15 Z M6.48062485,4 L21.5193752,4 C21.8231589,4 22.1104718,4.13808972 22.300244,4.37530495 L25.5617376,8.45217202 C25.8454385,8.80679812 26,9.24741913 26,9.70156212 L26,23 C26,23.5522847 25.5522847,24 25,24 L3,24 C2.44771525,24 2,23.5522847 2,23 L2,9.70156212 C2,9.24741913 2.1545615,8.80679812 2.43826238,8.45217202 L5.69975604,4.37530495 C5.88952822,4.13808972 6.17684113,4 6.48062485,4 Z" id="Combined-Shape" fill="#000000" fill-rule="nonzero" mask="url(#mask-2)"></path>
            </g>
        </g>
    </g>
</svg>