<?xml version="1.0" encoding="UTF-8"?>
<svg width="28px" height="28px" viewBox="0 0 28 28" version="1.1" xmlns="http://www.w3.org/2000/svg" xmlns:xlink="http://www.w3.org/1999/xlink">
    <!-- Generator: Sketch 50 (54983) - http://www.bohemiancoding.com/sketch -->
    <title>my3</title>
    <desc>Created with Sketch.</desc>
    <defs>
        <rect id="path-1" x="0" y="0" width="28" height="28"></rect>
    </defs>
    <g id="首页" stroke="none" stroke-width="1" fill="none" fill-rule="evenodd">
        <g id="Artboard-2" transform="translate(-56.000000, -144.000000)">
            <g id="Oval-2" transform="translate(56.000000, 144.000000)">
                <mask id="mask-2" fill="white">
                    <use xlink:href="#path-1"></use>
                </mask>
                <g id="Mask"></g>
                <path d="M13.8487067,13.9294679 L19.3185552,8.45961939 C19.572396,8.20577861 19.9839532,8.20577861 20.237794,8.45961939 C20.4916348,8.71346017 20.4916348,9.12501739 20.237794,9.37885817 L14.7679455,14.8487067 L15.1164736,15.1972349 C15.3703144,15.4510756 15.3703144,15.8626329 15.1164736,16.1164736 C14.8626329,16.3703144 14.4510756,16.3703144 14.1972349,16.1164736 L13.8487067,15.7679455 L13.3788582,16.237794 C13.1250174,16.4916348 12.7134602,16.4916348 12.4596194,16.237794 C12.2057786,15.9839532 12.2057786,15.572396 12.4596194,15.3185552 L12.9294679,14.8487067 L9.45961939,11.3788582 C9.20577861,11.1250174 9.20577861,10.7134602 9.45961939,10.4596194 C9.71346017,10.2057786 10.1250174,10.2057786 10.3788582,10.4596194 L13.8487067,13.9294679 Z M14,25 C7.92486775,25 3,20.0751322 3,14 C3,7.92486775 7.92486775,3 14,3 C20.0751322,3 25,7.92486775 25,14 C25,20.0751322 20.0751322,25 14,25 Z M14,23.6999999 C19.357162,23.6999999 23.6999999,19.357162 23.6999999,14 C23.6999999,8.64283797 19.357162,4.30000007 14,4.30000007 C8.64283797,4.30000007 4.30000007,8.64283797 4.30000007,14 C4.30000007,19.357162 8.64283797,23.6999999 14,23.6999999 Z" id="Combined-Shape" fill="#000000" fill-rule="nonzero" mask="url(#mask-2)"></path>
            </g>
        </g>
    </g>
</svg>