<?xml version="1.0" encoding="UTF-8"?>
<svg width="28px" height="28px" viewBox="0 0 28 28" version="1.1" xmlns="http://www.w3.org/2000/svg" xmlns:xlink="http://www.w3.org/1999/xlink">
    <!-- Generator: Sketch 50 (54983) - http://www.bohemiancoding.com/sketch -->
    <title>my4</title>
    <desc>Created with Sketch.</desc>
    <defs></defs>
    <g id="首页" stroke="none" stroke-width="1" fill="none" fill-rule="evenodd">
        <g id="Artboard-2" transform="translate(-84.000000, -144.000000)" fill="#000000" fill-rule="nonzero">
            <g id="Rectangle-3" transform="translate(84.000000, 144.000000)">
                <g id="Group-4">
                    <path d="M21.1715729,6 L19.8715728,7.30000007 L3.30000007,7.30000007 L3.30000007,21.6999999 L22.6999999,21.6999999 L22.6999999,10.1284272 L24,8.82842712 L24,22 C24,22.5522847 23.5522847,23 23,23 L3,23 C2.44771525,23 2,22.5522847 2,22 L2,7 C2,6.44771525 2.44771525,6 3,6 L21.1715729,6 Z M24.4696699,4.46966991 C24.7625631,4.1767767 25.2374369,4.1767767 25.5303301,4.46966991 C25.8232233,4.76256313 25.8232233,5.23743687 25.5303301,5.53033009 L14.5303301,16.5303301 C14.2374369,16.8232233 13.7625631,16.8232233 13.4696699,16.5303301 L8.46966991,11.5303301 C8.1767767,11.2374369 8.1767767,10.7625631 8.46966991,10.4696699 C8.76256313,10.1767767 9.23743687,10.1767767 9.53033009,10.4696699 L14,14.9393398 L24.4696699,4.46966991 Z" id="Combined-Shape"></path>
                </g>
            </g>
        </g>
    </g>
</svg>