<?xml version="1.0" encoding="UTF-8"?>
<svg width="67px" height="30px" viewBox="0 0 67 30" version="1.1" xmlns="http://www.w3.org/2000/svg" xmlns:xlink="http://www.w3.org/1999/xlink">
    <!-- Generator: Sketch 50.2 (55047) - http://www.bohemiancoding.com/sketch -->
    <title>Combined Shape</title>
    <desc>Created with Sketch.</desc>
    <defs></defs>
    <g id="我的账户" stroke="none" stroke-width="1" fill="none" fill-rule="evenodd">
        <g id="MY-ACCOUNT-1-Copy-2" transform="translate(-155.000000, -272.000000)" fill="#E6E6E6" fill-rule="nonzero">
            <path d="M205.451687,293.104523 L214.464154,282.244595 L204.984808,282.244595 L199.592113,292.980653 L201.144961,291.950157 C201.922849,291.433936 202.934293,291.433936 203.712182,291.950157 L205.451687,293.104523 Z M197.00188,293.659246 L202.73543,282.244595 L174.26457,282.244595 L179.99812,293.659246 L182.573532,291.950157 C183.351421,291.433936 184.362865,291.433936 185.140754,291.950157 L188.07213,293.895469 C188.331426,294.067543 188.668574,294.067543 188.92787,293.895469 L191.859246,291.950157 C192.637135,291.433936 193.648579,291.433936 194.426468,291.950157 L197.00188,293.659246 Z M177.407887,292.980653 L172.015192,282.244595 L162.535846,282.244595 L171.548313,293.104523 L173.287818,291.950157 C174.065707,291.433936 175.077151,291.433936 175.855039,291.950157 L177.407887,292.980653 Z M169.66333,293.977684 L159.095238,281.243243 L168.380952,272 L208.619048,272 L217.904762,281.243243 L207.33667,293.977684 C207.39314,293.957078 207.447758,293.929673 207.499299,293.895469 L210.430675,291.950157 C211.208564,291.433936 212.220008,291.433936 212.997897,291.950157 L215.929273,293.895469 C216.188569,294.067543 216.525717,294.067543 216.785013,293.895469 L220.57213,291.382273 C220.928218,291.145966 221.408448,291.243069 221.644754,291.599157 C221.881061,291.955245 221.783958,292.435475 221.42787,292.671781 L217.640754,295.184978 C216.862865,295.701199 215.851421,295.701199 215.073532,295.184978 L212.142156,293.239666 C211.88286,293.067592 211.545712,293.067592 211.286415,293.239666 L208.355039,295.184978 C207.577151,295.701199 206.565707,295.701199 205.787818,295.184978 L202.856442,293.239666 C202.597145,293.067592 202.259997,293.067592 202.000701,293.239666 L199.069325,295.184978 C198.291436,295.701199 197.279992,295.701199 196.502103,295.184978 L193.570727,293.239666 C193.311431,293.067592 192.974283,293.067592 192.714987,293.239666 L189.783611,295.184978 C189.005722,295.701199 187.994278,295.701199 187.216389,295.184978 L184.285013,293.239666 C184.025717,293.067592 183.688569,293.067592 183.429273,293.239666 L180.497897,295.184978 C179.720008,295.701199 178.708564,295.701199 177.930675,295.184978 L174.999299,293.239666 C174.740003,293.067592 174.402855,293.067592 174.143558,293.239666 L171.212182,295.184978 C170.434293,295.701199 169.422849,295.701199 168.644961,295.184978 L165.713585,293.239666 C165.454288,293.067592 165.11714,293.067592 164.857844,293.239666 L161.926468,295.184978 C161.148579,295.701199 160.137135,295.701199 159.359246,295.184978 L155.57213,292.671781 C155.216042,292.435475 155.118939,291.955245 155.355246,291.599157 C155.591552,291.243069 156.071782,291.145966 156.42787,291.382273 L160.214987,293.895469 C160.474283,294.067543 160.811431,294.067543 161.070727,293.895469 L164.002103,291.950157 C164.779992,291.433936 165.791436,291.433936 166.569325,291.950157 L169.500701,293.895469 C169.552242,293.929673 169.60686,293.957078 169.66333,293.977684 Z M203.741382,280.241892 L206.875311,274.002703 L170.124689,274.002703 L173.258618,280.241892 L203.741382,280.241892 Z M164.857844,298.833944 C164.501756,298.597637 164.404654,298.117407 164.64096,297.761319 C164.877266,297.405231 165.357497,297.308129 165.713585,297.544435 L169.500701,300.057632 C169.759997,300.229705 170.097145,300.229705 170.356442,300.057632 L173.287818,298.112319 C174.065707,297.596099 175.077151,297.596099 175.855039,298.112319 L178.786415,300.057632 C179.045712,300.229705 179.38286,300.229705 179.642156,300.057632 L182.573532,298.112319 C183.351421,297.596099 184.362865,297.596099 185.140754,298.112319 L188.07213,300.057632 C188.331426,300.229705 188.668574,300.229705 188.92787,300.057632 L191.859246,298.112319 C192.637135,297.596099 193.648579,297.596099 194.426468,298.112319 L197.357844,300.057632 C197.61714,300.229705 197.954288,300.229705 198.213585,300.057632 L201.144961,298.112319 C201.922849,297.596099 202.934293,297.596099 203.712182,298.112319 L206.643558,300.057632 C206.902855,300.229705 207.240003,300.229705 207.499299,300.057632 L211.286415,297.544435 C211.642503,297.308129 212.122734,297.405231 212.35904,297.761319 C212.595346,298.117407 212.498244,298.597637 212.142156,298.833944 L208.355039,301.34714 C207.577151,301.863361 206.565707,301.863361 205.787818,301.34714 L202.856442,299.401828 C202.597145,299.229754 202.259997,299.229754 202.000701,299.401828 L199.069325,301.34714 C198.291436,301.863361 197.279992,301.863361 196.502103,301.34714 L193.570727,299.401828 C193.311431,299.229754 192.974283,299.229754 192.714987,299.401828 L189.783611,301.34714 C189.005722,301.863361 187.994278,301.863361 187.216389,301.34714 L184.285013,299.401828 C184.025717,299.229754 183.688569,299.229754 183.429273,299.401828 L180.497897,301.34714 C179.720008,301.863361 178.708564,301.863361 177.930675,301.34714 L174.999299,299.401828 C174.740003,299.229754 174.402855,299.229754 174.143558,299.401828 L171.212182,301.34714 C170.434293,301.863361 169.422849,301.863361 168.644961,301.34714 L164.857844,298.833944 Z" id="Combined-Shape"></path>
        </g>
    </g>
</svg>