<?xml version="1.0" encoding="UTF-8"?>
<svg width="58px" height="58px" viewBox="0 0 58 58" version="1.1" xmlns="http://www.w3.org/2000/svg" xmlns:xlink="http://www.w3.org/1999/xlink">
    <!-- Generator: Sketch 50 (54983) - http://www.bohemiancoding.com/sketch -->
  <path d="M29,33.7791258 C29.7013269,32.7613132 30.9911519,31.9380676 32.9703238,31.0448834 C33.4981201,30.8066933 35.4945851,29.9513218 35.5046466,29.9469418 C36.5686177,29.4837755 37.3961396,29.096448 38.1972648,28.6748031 C44.2267057,25.5014132 47.35,20.7890745 47.35,12 C47.35,11.6410149 47.6410149,11.35 48,11.35 C48.3589851,11.35 48.65,11.6410149 48.65,12 C48.65,21.2942589 45.2420443,26.4360868 38.8027352,29.8251969 C37.9687414,30.264141 37.1143755,30.6640331 36.0235277,31.1388993 C36.0031546,31.147768 34.0194605,31.9976679 33.5050706,32.2298079 C30.7070858,33.4925157 29.65,34.4551611 29.65,36 C29.65,36.040508 29.6462946,36.0801505 29.6392041,36.1186071 L33,42 L29,46 L25,42 L28.3607959,36.1186071 C28.3537054,36.0801505 28.35,36.040508 28.35,36 C28.35,34.4551611 27.2929142,33.4925157 24.4949294,32.2298079 C23.9805395,31.9976679 21.9968454,31.147768 21.9764723,31.1388993 C20.8856245,30.6640331 20.0312586,30.264141 19.1972648,29.8251969 C12.7579557,26.4360868 9.34999996,21.2942589 9.34999996,12 C9.34999996,11.6410149 9.64101489,11.35 10,11.35 C10.3589851,11.35 10.65,11.6410149 10.65,12 C10.65,20.7890745 13.7732943,25.5014132 19.8027352,28.6748031 C20.6038604,29.096448 21.4313823,29.4837755 22.4953534,29.9469418 C22.5054149,29.9513218 24.5018799,30.8066933 25.0296762,31.0448834 C27.0088481,31.9380676 28.2986731,32.7613132 29,33.7791258 Z" id="Combined-Shape"></path>
</svg>
