<?xml version="1.0" encoding="UTF-8"?>
<svg width="58px" height="58px" viewBox="0 0 58 58" version="1.1" xmlns="http://www.w3.org/2000/svg" xmlns:xlink="http://www.w3.org/1999/xlink">
    <!-- Generator: Sketch 50 (54983) - http://www.bohemiancoding.com/sketch -->
  <g id="Group-25" transform="translate(11.000000, 10.000000)">
      <path d="M30.8910822,28.7678508 C30.9618981,28.9994093 31,29.2452551 31,29.5 C31,30.8807119 29.8807119,32 28.5,32 C27.1192881,32 26,30.8807119 26,29.5 C26,28.1192881 27.1192881,27 28.5,27 C29.1324254,27 29.7100033,27.2348305 30.1502936,27.6220515 C35.2527713,21.261182 34.854385,11.9441252 28.9551299,6.04487011 C22.6286363,-0.281623434 12.3713637,-0.281623434 6.04487011,6.04487011 C0.145616682,11.9441235 -0.252771098,21.2611767 4.84970677,27.6220511 C5.28999707,27.2348303 5.86757476,27 6.5,27 C7.88071187,27 9,28.1192881 9,29.5 C9,30.8807119 7.88071187,32 6.5,32 C5.11928813,32 4,30.8807119 4,29.5 C4,29.2452551 4.03810192,28.9994093 4.10891777,28.7678508 C-1.68983039,21.8921942 -1.35092587,11.6021885 5.12563133,5.12563133 C11.9598064,-1.70854378 23.0401936,-1.70854378 29.8743687,5.12563133 C36.3509259,11.6021885 36.6898304,21.8921942 30.8910822,28.7678508 Z" id="Combined-Shape"></path>
  </g>
</svg>
