<?xml version="1.0" encoding="UTF-8"?>
<svg width="58px" height="58px" viewBox="0 0 58 58" version="1.1" xmlns="http://www.w3.org/2000/svg" xmlns:xlink="http://www.w3.org/1999/xlink">
    <!-- Generator: Sketch 50 (54983) - http://www.bohemiancoding.com/sketch -->
  <path d="M27.0727282,11.4636667 C27.3071297,10.6195485 28.0812132,10 29,10 C29.9132095,10 30.6834671,10.6120496 30.9229435,11.4483194 C33.3769314,11.7117121 35.5908019,12.4931928 37.5171026,13.657958 C37.8830505,13.25385 38.4118803,13 39,13 C40.1045695,13 41,13.8954305 41,15 C41,15.4183113 40.8715764,15.8066277 40.652005,16.1276732 C46.7739732,22.2847648 48.0659242,33.0702515 41.6911979,40.4257049 C39.6468035,42.7846216 36.9261262,44.5977412 33.8952983,45.7433041 C34.4631703,45.6837865 35.028881,45.5987409 35.5902229,45.487417 C43.0484248,44.0083265 48.5667252,38.3008394 50.3614799,28.8783771 C50.4286504,28.5257322 50.768978,28.2943094 51.1216229,28.3614799 C51.4742678,28.4286504 51.7056906,28.768978 51.6385201,29.1216229 C49.7458434,39.0581758 43.8278355,45.1790738 35.8431104,46.762583 C33.6011342,47.2072056 31.2958536,47.259853 29.0485834,46.9611076 C26.7921298,47.2598371 24.4765579,47.2072546 22.2241385,46.7626982 C14.200232,45.1790324 8.25397327,39.0572131 6.3614799,29.1216229 C6.29430944,28.768978 6.52573221,28.4286504 6.87837712,28.3614799 C7.23102204,28.2943094 7.57134964,28.5257322 7.6385201,28.8783771 C9.43283967,38.2985549 14.9780328,44.0074672 22.4758615,45.4873018 C23.0586597,45.6023278 23.6461021,45.6893068 24.2357361,45.7490687 C21.2096167,44.6039184 18.4901347,42.788781 16.4421354,40.4257049 C10.0942719,33.1012469 11.3486079,22.3756026 17.4041931,16.2057559 C17.1504932,15.8705111 17,15.4528303 17,15 C17,13.8954305 17.8954305,13 19,13 C19.6134256,13 20.1623492,13.2761656 20.529223,13.7109487 C22.4398476,12.5389322 24.6366612,11.7453931 27.0727282,11.4636667 Z M27.1513115,12.7644907 C24.8535895,13.0432799 22.7872825,13.819124 20.999583,14.9587492 C20.9998606,14.972466 21,14.9862167 21,15 C21,16.1045695 20.1045695,17 19,17 C18.8330829,17 18.6709417,16.9795522 18.5159446,16.9410248 C12.748249,22.6212124 11.4811613,32.7165605 17.4245313,39.5742951 C20.2663221,42.8532845 24.5244123,45.0084498 29.0489536,45.6489858 C33.5943603,45.0083093 37.8676333,42.8525668 40.7088021,39.5742951 C46.6622511,32.7049309 45.3807661,22.5869629 39.5880066,16.9121648 C39.4020917,16.969267 39.2046349,17 39,17 C37.8954305,17 37,16.1045695 37,15 C37,14.9586325 37.0012559,14.9175584 37.0037317,14.8768137 C35.2129194,13.7612658 33.1478092,13.0085252 30.8547872,12.7495885 C30.558196,13.4827641 29.8395014,14 29,14 C28.1661978,14 27.4515677,13.489763 27.1513115,12.7644907 Z" id="Combined-Shape"></path>
</svg>
