<?xml version="1.0" encoding="UTF-8"?>
<svg width="58px" height="58px" viewBox="0 0 58 58" version="1.1" xmlns="http://www.w3.org/2000/svg" xmlns:xlink="http://www.w3.org/1999/xlink">
    <!-- Generator: Sketch 50 (54983) - http://www.bohemiancoding.com/sketch -->
  <g id="Group-13" transform="translate(15.000000, 13.000000)">
      <path d="M14,33.7 C21.0140163,33.7 26.7,28.0140163 26.7,21 C26.7,13.9859837 21.0140163,8.3 14,8.3 C6.98598368,8.3 1.3,13.9859837 1.3,21 C1.3,28.0140163 6.98598368,33.7 14,33.7 Z M9,7.91925764 L9,7 L10,6 L12.5,7 L12.8,7 L8,3 L14,0 L20,3 L15.2,7 L15.5,7 L18,6 L19,7 L19,7.91925764 C24.2627404,9.93210223 28,15.0296092 28,21 C28,28.7319865 21.7319865,35 14,35 C6.2680135,35 0,28.7319865 0,21 C0,15.0296092 3.73725956,9.93210223 9,7.91925764 Z" id="Combined-Shape"></path>
  </g>
</svg>
