<?xml version="1.0" encoding="UTF-8"?>
<svg width="214px" height="222px" viewBox="0 0 214 222" version="1.1" xmlns="http://www.w3.org/2000/svg" xmlns:xlink="http://www.w3.org/1999/xlink">
    <!-- Generator: Sketch 50 (54983) - http://www.bohemiancoding.com/sketch -->
    <title>Artboard 2</title>
    <desc>Created with Sketch.</desc>
    <defs>
        <rect id="path-1" x="0" y="0" width="28" height="28"></rect>
        <rect id="path-3" x="0" y="0" width="28" height="28"></rect>
        <rect id="path-5" x="0" y="0" width="28" height="28"></rect>
        <rect id="path-7" x="0" y="0" width="28" height="28"></rect>
        <polyline id="path-9" points="9 11 14 16 25 5"></polyline>
    </defs>
    <g id="Artboard-2" stroke="none" stroke-width="1" fill="none" fill-rule="evenodd">
        <g id="Group-15" transform="translate(146.000000, 78.000000)">
            <g id="Group-26" transform="translate(10.000000, 15.000000)">
                <path d="M31.7307612,0.650000036 L6.26923883,0.650000036 L0.877545323,6.04169354 L19,27.9794018 L37.1224547,6.04169354 L31.7307612,0.650000036 Z" id="Rectangle-6" stroke="#333333" stroke-width="1.30000007"></path>
                <polyline id="Path-6" stroke="#333333" stroke-width="1.30000007" points="32 0.5 19 26.5 6 0.5"></polyline>
                <polygon id="Path-9" fill="#333333" points="9 6 6 1 1 6"></polygon>
                <polygon id="Path-9" fill="#333333" transform="translate(33.000000, 3.500000) scale(-1, 1) translate(-33.000000, -3.500000) " points="37 6 34 1 29 6"></polygon>
                <path d="M1,6 L37,6" id="Path-7" stroke="#333333" stroke-width="1.30000007"></path>
            </g>
        </g>
        <g id="Group-10" transform="translate(78.000000, 10.000000)">
            <g id="Group-25" transform="translate(3.000000, 2.000000)">
                <path d="M42.3479249,25.2328363 C42.2051868,16.050044 34.7167798,8.64999998 25.5,8.64999998 C16.194002,8.64999998 8.64999998,16.194002 8.64999998,25.5 C8.64999998,34.7167798 16.050044,42.2051868 25.2328363,42.3479249 L42.3479249,25.2328363 Z" id="Oval-2" stroke="#333333" stroke-width="1.29999995" transform="translate(25.500000, 25.500000) rotate(-315.000000) translate(-25.500000, -25.500000) "></path>
                <circle id="Oval-3" fill="#333333" cx="14.5" cy="37.5" r="2.5"></circle>
                <circle id="Oval-3" fill="#333333" cx="36.5" cy="37.5" r="2.5"></circle>
            </g>
        </g>
        <g id="Group-9" transform="translate(10.000000, 10.000000)">
            <polygon id="Rectangle-6" fill="#333333" points="29 35 33 42 29 46 25 42"></polygon>
            <path d="M10,36 C10,29 29,33 29,12" id="Path-2" stroke="#333333" stroke-width="1.30000007" stroke-linecap="round" stroke-linejoin="round" transform="translate(19.500000, 24.000000) scale(-1, 1) translate(-19.500000, -24.000000) "></path>
            <path d="M29,36 C29,29 48,33 48,12" id="Path-2" stroke="#333333" stroke-width="1.30000007" stroke-linecap="round" stroke-linejoin="round"></path>
        </g>
        <g id="Group-11" transform="translate(146.000000, 10.000000)">
            <path d="M7,29 C11,50 32.5333333,50 41.2,40 C49.8666667,30 43.8,12 29.0666667,12 C14.3333333,12 8.26666667,30 16.9333333,40 C25.6,50 47,50 51,29" id="Path-4" stroke="#333333" stroke-width="1.30000007" stroke-linecap="round"></path>
            <circle id="Oval-3" fill="#333333" cx="19" cy="15" r="2"></circle>
            <circle id="Oval-3" fill="#333333" cx="39" cy="15" r="2"></circle>
            <circle id="Oval-3" fill="#333333" cx="29" cy="12" r="2"></circle>
        </g>
        <g id="Group-12" transform="translate(10.000000, 78.000000)">
            <g id="Group-13" transform="translate(15.000000, 13.000000)">
                <circle id="Oval-9" stroke="#333333" stroke-width="1.3" cx="14" cy="21" r="13.35"></circle>
                <polygon id="Rectangle-6" fill="#333333" points="14 0 20 3 14 8 8 3"></polygon>
                <polygon id="Path-3" fill="#333333" points="9 8 9 7 10 6 12.5 7 15.5 7 18 6 19 7 19 8"></polygon>
            </g>
        </g>
        <g id="Group-14" transform="translate(78.000000, 78.000000)">
            <g id="Group-24" transform="translate(14.000000, 13.000000)">
                <path d="M3,0 L3,25.0051015" id="Path-5" stroke="#333333" stroke-width="1.30000007" stroke-linecap="round" stroke-linejoin="round"></path>
                <path d="M25,0 L25,25.0051015" id="Path-5" stroke="#333333" stroke-width="1.30000007" stroke-linecap="round" stroke-linejoin="round"></path>
                <polygon id="Rectangle-6" fill="#333333" points="25 23 29 30 25 34 21 30"></polygon>
                <circle id="Oval-3" fill="#333333" cx="3" cy="28" r="3"></circle>
            </g>
        </g>
        <g id="Group-23" transform="translate(10.000000, 146.000000)" fill="#CCB8A3">
            <path d="M14,5 C14.84375,7.22222222 15.5,8 17,9 C15.5,10 14.84375,10.7777778 14,13 C13.15625,10.7777778 12.5,10 11,9 C12.5,8 13.15625,7.22222222 14,5 Z M18,25 L10,25 C12,23 13.4375,20.6923077 14,18 C14.5625,20.6923077 16,23 18,25 Z M5,13 L5,5 C5.5625,6.48148148 6.5,8 8,9 C6.5,10 5.5625,11.5185185 5,13 Z M23,13 C22.4375,11.5185185 21.5,10 20,9 C21.5,8 22.4375,6.48148148 23,5 L23,13 Z" id="Combined-Shape"></path>
        </g>
        <g id="Group-22" transform="translate(86.000000, 184.000000)" stroke="#000000" stroke-width="2">
            <g id="Group" transform="translate(4.000000, 3.000000)">
                <circle id="Oval-4" cx="10" cy="7" r="6"></circle>
                <path d="M18.9450712,21 C18.4476269,16.5000495 14.6325537,13 10,13 C5.36744635,13 1.55237307,16.5000495 1.05492878,21 L18.9450712,21 Z" id="Oval-5"></path>
            </g>
        </g>
        <g id="Group-22" transform="translate(86.000000, 146.000000)" stroke="#B99F85" stroke-width="2">
            <g id="Group-2" transform="translate(4.000000, 3.000000)">
                <circle id="Oval-4" cx="10" cy="7" r="6"></circle>
                <path d="M18.9450712,21 C18.4476269,16.5000495 14.6325537,13 10,13 C5.36744635,13 1.55237307,16.5000495 1.05492878,21 L18.9450712,21 Z" id="Oval-5"></path>
            </g>
        </g>
        <g id="Group-21" transform="translate(48.000000, 184.000000)">
            <g id="Group-5" transform="translate(1.000000, 2.000000)">
                <g id="Group-4" stroke="#000000" stroke-width="2">
                    <path d="M5,7.41421356 L5,10.5857864 L5.41421356,11 L11,11 L11,5.41421356 L10.5857864,5 L7.41421356,5 L5,7.41421356 Z M14,5.41421356 L14,11 L19.5857864,11 L20,10.5857864 L20,7.41421356 L17.5857864,5 L14.4142136,5 L14,5.41421356 Z M5,14.4142136 L5,17.5857864 L7.41421356,20 L10.5857864,20 L11,19.5857864 L11,14 L5.41421356,14 L5,14.4142136 Z M14,14 L14,19.5857864 L14.4142136,20 L17.5857864,20 L20,17.5857864 L20,14.4142136 L19.5857864,14 L14,14 Z" id="Combined-Shape" transform="translate(12.500000, 12.500000) rotate(-315.000000) translate(-12.500000, -12.500000) "></path>
                </g>
                <path d="M18,4 L21,4 L21,7 L18,7 L18,4 Z M4,4 L7,4 L7,7 L4,7 L4,4 Z M18,18 L21,18 L21,21 L18,21 L18,18 Z M4,18 L7,18 L7,21 L4,21 L4,18 Z" id="Combined-Shape" fill="#000000"></path>
            </g>
        </g>
        <g id="Group-23" transform="translate(10.000000, 184.000000)" fill="#000000">
            <path d="M14,5 C14.84375,7.22222222 15.5,8 17,9 C15.5,10 14.84375,10.7777778 14,13 C13.15625,10.7777778 12.5,10 11,9 C12.5,8 13.15625,7.22222222 14,5 Z M18,25 L10,25 C12,23 13.4375,20.6923077 14,18 C14.5625,20.6923077 16,23 18,25 Z M5,13 L5,5 C5.5625,6.48148148 6.5,8 8,9 C6.5,10 5.5625,11.5185185 5,13 Z M23,13 C22.4375,11.5185185 21.5,10 20,9 C21.5,8 22.4375,6.48148148 23,5 L23,13 Z" id="Combined-Shape"></path>
        </g>
        <g id="Group-21" transform="translate(48.000000, 146.000000)">
            <g id="Group-5">
                <g id="Group-4" stroke="#B99F85" stroke-width="2">
                    <path d="M6,9.41421356 L6,12.5857864 L6.41421356,13 L12,13 L12,7.41421356 L11.5857864,7 L8.41421356,7 L6,9.41421356 Z M15,7.41421356 L15,13 L20.5857864,13 L21,12.5857864 L21,9.41421356 L18.5857864,7 L15.4142136,7 L15,7.41421356 Z M6,16.4142136 L6,19.5857864 L8.41421356,22 L11.5857864,22 L12,21.5857864 L12,16 L6.41421356,16 L6,16.4142136 Z M15,16 L15,21.5857864 L15.4142136,22 L18.5857864,22 L21,19.5857864 L21,16.4142136 L20.5857864,16 L15,16 Z" id="Combined-Shape" transform="translate(13.500000, 14.500000) rotate(-315.000000) translate(-13.500000, -14.500000) "></path>
                </g>
                <path d="M19,6 L22,6 L22,9 L19,9 L19,6 Z M5,6 L8,6 L8,9 L5,9 L5,6 Z M19,20 L22,20 L22,23 L19,23 L19,20 Z M5,20 L8,20 L8,23 L5,23 L5,20 Z" id="Combined-Shape" fill="#B99F85"></path>
            </g>
        </g>
        <g id="Rectangle-3" transform="translate(124.000000, 146.000000)">
            <mask id="mask-2" fill="white">
                <use xlink:href="#path-1"></use>
            </mask>
            <g id="Mask"></g>
            <rect stroke="#000000" stroke-width="1.30000007" mask="url(#mask-2)" x="2.65000004" y="4.65000004" width="22.6999999" height="18.6999999" rx="1"></rect>
            <path d="M19,10.65 C18.2544156,10.65 17.65,11.2544156 17.65,12 L17.65,16 C17.65,16.7455844 18.2544156,17.35 19,17.35 L26,17.35 C26.1932996,17.35 26.35,17.1932996 26.35,17 L26.35,11 C26.35,10.8067004 26.1932996,10.65 26,10.65 L19,10.65 Z" id="Rectangle-5" stroke="#000000" stroke-width="1.30000007" fill="#FFFFFF" mask="url(#mask-2)"></path>
            <circle id="Oval" fill="#000000" mask="url(#mask-2)" cx="20" cy="14" r="1"></circle>
        </g>
        <g id="Rectangle-3" transform="translate(162.000000, 146.000000)">
            <mask id="mask-4" fill="white">
                <use xlink:href="#path-3"></use>
            </mask>
            <g id="Mask"></g>
            <path d="M6.48062485,4.65000004 C6.37430056,4.65000004 6.27374105,4.69833143 6.20732079,4.78135676 L2.94582714,8.85822383 C2.75432905,9.09759644 2.65000004,9.39501561 2.65000004,9.70156212 L2.65000004,23 C2.65000004,23.1932996 2.80670036,23.35 3,23.35 L25,23.35 C25.1932996,23.35 25.35,23.1932996 25.35,23 L25.35,9.70156212 C25.35,9.39501561 25.245671,9.09759644 25.0541729,8.85822383 L21.7926792,4.78135676 C21.7262589,4.69833143 21.6256994,4.65000004 21.5193752,4.65000004 L6.48062485,4.65000004 Z" stroke="#000000" stroke-width="1.30000007" mask="url(#mask-4)"></path>
            <path d="M3,9.5 L25,9.5" id="Path-2" stroke="#000000" stroke-width="1.30000007" mask="url(#mask-4)"></path>
            <path d="M12.3502136,4.5 L10.5,9.58808749 L10.5,13.5 L17.5,13.5 L17.5,9.58808749 L15.6497864,4.5 L12.3502136,4.5 Z" id="Path-3" stroke="#000000" mask="url(#mask-4)"></path>
        </g>
        <g id="Oval-2" transform="translate(124.000000, 184.000000)">
            <mask id="mask-6" fill="white">
                <use xlink:href="#path-5"></use>
            </mask>
            <g id="Mask"></g>
            <circle stroke="#000000" stroke-width="1.30000007" mask="url(#mask-6)" cx="14" cy="14" r="10.35"></circle>
            <rect id="Rectangle-2" fill="#000000" mask="url(#mask-6)" transform="translate(12.288047, 13.288047) rotate(-45.000000) translate(-12.288047, -13.288047) " x="11.6380465" y="9.28804652" width="1.29999995" height="8" rx="0.649999976"></rect>
            <rect id="Rectangle-2" fill="#000000" mask="url(#mask-6)" transform="translate(16.348707, 12.348707) rotate(-315.000000) translate(-16.348707, -12.348707) " x="15.6987067" y="6.84870669" width="1.29999995" height="11" rx="0.649999976"></rect>
        </g>
        <g id="Rectangle-3" transform="translate(162.000000, 184.000000)">
            <mask id="mask-8" fill="white">
                <use xlink:href="#path-7"></use>
            </mask>
            <g id="Mask"></g>
            <g id="Group-4" mask="url(#mask-8)">
                <rect id="Rectangle-3" stroke="#000000" stroke-width="1.30000007" x="2.65000004" y="6.65000004" width="20.6999999" height="15.6999999" rx="1"></rect>
                <g id="Path-10" stroke-linecap="round" stroke-linejoin="round">
                    <use stroke="#FFFFFF" stroke-width="4" xlink:href="#path-9"></use>
                    <use stroke="#000000" stroke-width="1.5" xlink:href="#path-9"></use>
                </g>
            </g>
        </g>
    </g>
</svg>