<?xml version="1.0" encoding="UTF-8"?>
<svg width="28px" height="28px" viewBox="0 0 28 28" version="1.1" xmlns="http://www.w3.org/2000/svg" xmlns:xlink="http://www.w3.org/1999/xlink">
  <path d="M14,5 C14.84375,7.22222222 15.5,8 17,9 C15.5,10 14.84375,10.7777778 14,13 C13.15625,10.7777778 12.5,10 11,9 C12.5,8 13.15625,7.22222222 14,5 Z M18,25 L10,25 C12,23 13.4375,20.6923077 14,18 C14.5625,20.6923077 16,23 18,25 Z M5,13 L5,5 C5.5625,6.48148148 6.5,8 8,9 C6.5,10 5.5625,11.5185185 5,13 Z M23,13 C22.4375,11.5185185 21.5,10 20,9 C21.5,8 22.4375,6.48148148 23,5 L23,13 Z" id="Combined-Shape"></path>
</svg>
