<?xml version="1.0" encoding="UTF-8"?>
<svg width="28px" height="28px" viewBox="0 0 28 28" version="1.1" xmlns="http://www.w3.org/2000/svg" xmlns:xlink="http://www.w3.org/1999/xlink">
    <!-- Generator: Sketch 50 (54983) - http://www.bohemiancoding.com/sketch -->
    <path d="M10.6715729,8.13603897 L13.5,10.9644661 L16.3284271,8.13603897 L14.7928932,6.60050506 L12.2071068,6.60050506 L10.6715729,8.13603897 Z M11.3786797,4.60050506 L15.6213203,4.60050506 L18.4497475,7.42893219 L18.4497475,8.84314575 L13.5,13.7928932 L8.55025253,8.84314575 L8.55025253,7.42893219 L11.3786797,4.60050506 Z M19.863961,11.6715729 L17.0355339,14.5 L19.863961,17.3284271 L21.3994949,15.7928932 L21.3994949,13.2071068 L19.863961,11.6715729 Z M19.1568542,9.55025253 L20.5710678,9.55025253 L23.3994949,12.3786797 L23.3994949,16.6213203 L20.5710678,19.4497475 L19.1568542,19.4497475 L14.2071068,14.5 L19.1568542,9.55025253 Z M7.13603897,11.6715729 L5.60050506,13.2071068 L5.60050506,15.7928932 L7.13603897,17.3284271 L9.96446609,14.5 L7.13603897,11.6715729 Z M6.42893219,9.55025253 L7.84314575,9.55025253 L12.7928932,14.5 L7.84314575,19.4497475 L6.42893219,19.4497475 L3.60050506,16.6213203 L3.60050506,12.3786797 L6.42893219,9.55025253 Z M13.5,18.0355339 L10.6715729,20.863961 L12.2071068,22.3994949 L14.7928932,22.3994949 L16.3284271,20.863961 L13.5,18.0355339 Z M13.5,15.2071068 L18.4497475,20.1568542 L18.4497475,21.5710678 L15.6213203,24.3994949 L11.3786797,24.3994949 L8.55025253,21.5710678 L8.55025253,20.1568542 L13.5,15.2071068 Z M19,6 L22,6 L22,9 L19,9 L19,6 Z M5,6 L8,6 L8,9 L5,9 L5,6 Z M19,20 L22,20 L22,23 L19,23 L19,20 Z M5,20 L8,20 L8,23 L5,23 L5,20 Z" id="Combined-Shape"></path>
</svg>
