<?xml version="1.0" encoding="UTF-8"?>
<svg width="28px" height="28px" viewBox="0 0 28 28" version="1.1" xmlns="http://www.w3.org/2000/svg" xmlns:xlink="http://www.w3.org/1999/xlink">
    <!-- Generator: Sketch 50 (54983) - http://www.bohemiancoding.com/sketch -->
    <g stroke="none" stroke-width="1" fill="none" fill-rule="evenodd">
        <g transform="translate(-81.000000, -260.000000)">
            <g transform="translate(81.000000, 260.000000)">
                <g transform="translate(1.000000, 2.000000)">
                    <g stroke="#000000" stroke-width="2">
                        <path d="M5,7.41421356 L5,10.5857864 L5.41421356,11 L11,11 L11,5.41421356 L10.5857864,5 L7.41421356,5 L5,7.41421356 Z M14,5.41421356 L14,11 L19.5857864,11 L20,10.5857864 L20,7.41421356 L17.5857864,5 L14.4142136,5 L14,5.41421356 Z M5,14.4142136 L5,17.5857864 L7.41421356,20 L10.5857864,20 L11,19.5857864 L11,14 L5.41421356,14 L5,14.4142136 Z M14,14 L14,19.5857864 L14.4142136,20 L17.5857864,20 L20,17.5857864 L20,14.4142136 L19.5857864,14 L14,14 Z" id="Combined-Shape" transform="translate(12.500000, 12.500000) rotate(-315.000000) translate(-12.500000, -12.500000) "></path>
                    </g>
                    <path d="M18,4 L21,4 L21,7 L18,7 L18,4 Z M4,4 L7,4 L7,7 L4,7 L4,4 Z M18,18 L21,18 L21,21 L18,21 L18,18 Z M4,18 L7,18 L7,21 L4,21 L4,18 Z" id="Combined-Shape" fill="#000000"></path>
                </g>
            </g>
        </g>
    </g>
</svg>
