<?xml version="1.0" encoding="UTF-8"?>
<svg width="28px" height="28px" viewBox="0 0 28 28" version="1.1" xmlns="http://www.w3.org/2000/svg" xmlns:xlink="http://www.w3.org/1999/xlink">
    <!-- Generator: Sketch 50 (54983) - http://www.bohemiancoding.com/sketch -->
  <path d="M10,12 C12.7614237,12 15,9.76142375 15,7 C15,4.23857625 12.7614237,2 10,2 C7.23857625,2 5,4.23857625 5,7 C5,9.76142375 7.23857625,12 10,12 Z M6.07751553,12.7986107 C4.22040114,11.5399057 3,9.41247282 3,7 C3,3.13400675 6.13400675,0 10,0 C13.8659932,0 17,3.13400675 17,7 C17,9.41247282 15.7795989,11.5399057 13.9224845,12.7986107 C17.4956427,14.323779 20,17.8694275 20,22 L18,22 C18,17.581722 14.418278,14 10,14 C5.581722,14 2,17.581722 2,22 L0,22 C0,17.8694275 2.50435726,14.323779 6.07751553,12.7986107 Z" id="Combined-Shape"></path>
</svg>
