<?xml version="1.0" encoding="UTF-8"?>
<svg width="20px" height="17px" viewBox="0 0 20 17" version="1.1" xmlns="http://www.w3.org/2000/svg" xmlns:xlink="http://www.w3.org/1999/xlink">
    <!-- Generator: Sketch 50.2 (55047) - http://www.bohemiancoding.com/sketch -->
    <g id="Page-1" stroke="none" stroke-width="1" fill="none" fill-rule="evenodd">
        <g id="CHECK-OUT-buy-Copy-7" transform="translate(-31.000000, -229.000000)" fill="#000000" fill-rule="nonzero">
            <g id="微信支付" transform="translate(31.000000, 229.000000)">
                <path d="M7.27532832,10.7556573 C7.18972796,10.8106789 7.07561365,10.8381896 6.96147984,10.8381896 C6.70469827,10.8381896 6.5049836,10.7006546 6.3908693,10.508098 L6.33380239,10.4255657 L4.50783695,6.57443427 C4.479323,6.51941273 4.479323,6.49190196 4.479323,6.43689923 C4.479323,6.27185342 4.62197076,6.10678881 4.82168542,6.10678881 C4.90726628,6.10678881 4.96433318,6.13429958 5.02140009,6.16181035 L7.1611945,7.6472414 C7.30384226,7.75728447 7.50355693,7.81230601 7.7032716,7.81230601 C7.81740541,7.81230601 7.93151971,7.78479524 8.04565352,7.75728447 L18.1455011,3.41097798 C16.3195357,1.34789601 13.3523491,0 9.98573327,0 C4.479323,0 0,3.60355336 0,8.03235455 C0,10.4530765 1.34093575,12.6262392 3.45221622,14.0841406 C3.62339743,14.1941649 3.73751174,14.3867215 3.73751174,14.6067888 C3.73751174,14.6893211 3.70897829,14.7443427 3.70897829,14.7993454 C3.53779707,15.4045259 3.28103501,16.3673087 3.25250155,16.4223303 C3.2239681,16.5048438 3.19543465,16.5873761 3.19543465,16.6699084 C3.19543465,16.8349542 3.33808241,17 3.53779707,17 C3.62339743,17 3.68046434,16.9724892 3.73751174,16.9449785 L5.93437306,15.7346175 C6.10555427,15.652104 6.27675499,15.5970824 6.47646965,15.5970824 C6.59058396,15.5970824 6.67618432,15.6245932 6.76176517,15.652104 C7.78887195,15.9271741 8.87304564,16.0922387 10.0142667,16.0922387 C15.520677,16.0922387 20,12.4886665 20,8.05986532 C20,6.7119693 19.6005707,5.44660559 18.8587789,4.34628769 L7.33237572,10.7006546 L7.27532832,10.7556573 Z" id="Shape"></path>
            </g>
        </g>
    </g>
</svg>
